<?xml version="1.0" ?><svg xmlns="http://www.w3.org/2000/svg" viewBox="0 0 64 64"><defs><style>.cls-1{fill:#00008c;}.cls-2{fill:#fff;}.cls-3{fill:red;}</style></defs><title/><g id="Australia"><path class="cls-1" d="M56,32A24,24,0,0,1,8,32c0-.7,0-1.4.09-2.08,0-.45.09-.9.16-1.34a19.29,19.29,0,0,1,.44-2.29,22.78,22.78,0,0,1,1.16-3.53c0-.06.05-.12.08-.19.16-.37.33-.75.51-1.11A23.37,23.37,0,0,1,12.5,18l.13-.18c.16-.23.33-.45.51-.67s.43-.54.66-.8l.09-.11a.38.38,0,0,1,.09-.09c.35-.42.73-.82,1.12-1.21a.6.6,0,0,0,.08-.08,23.4,23.4,0,0,1,3.82-3,12.42,12.42,0,0,1,1.3-.78,19.2,19.2,0,0,1,2.27-1.13,18,18,0,0,1,1.9-.71A21.45,21.45,0,0,1,27,8.53a23.08,23.08,0,0,1,2.92-.44C30.6,8,31.3,8,32,8A24,24,0,0,1,56,32Z"/><polygon class="cls-2" points="21 38.21 22 40.75 24.62 39.95 23.25 42.32 25.51 43.86 22.81 44.27 23.01 47 21 45.15 18.99 47 19.19 44.27 16.49 43.86 18.75 42.32 17.38 39.95 20 40.75 21 38.21"/><polygon class="cls-2" points="42.94 33.36 43.37 34.45 44.5 34.11 43.91 35.13 44.88 35.79 43.72 35.97 43.8 37.14 42.94 36.34 42.08 37.14 42.16 35.97 41 35.79 41.97 35.13 41.38 34.11 42.51 34.45 42.94 33.36"/><polygon class="cls-2" points="45.94 26.22 46.18 26.82 46.79 26.63 46.47 27.18 47 27.55 46.37 27.64 46.41 28.28 45.94 27.85 45.47 28.28 45.52 27.64 44.88 27.55 45.41 27.18 45.09 26.63 45.71 26.82 45.94 26.22"/><polygon class="cls-2" points="42.59 16.06 43.02 17.16 44.15 16.81 43.56 17.83 44.53 18.5 43.37 18.68 43.45 19.85 42.59 19.05 41.72 19.85 41.81 18.68 40.65 18.5 41.62 17.83 41.03 16.81 42.16 17.16 42.59 16.06"/><polygon class="cls-2" points="49.06 21.3 49.49 22.39 50.62 22.05 50.03 23.07 51 23.73 49.84 23.91 49.92 25.09 49.06 24.29 48.2 25.09 48.28 23.91 47.12 23.73 48.09 23.07 47.5 22.05 48.63 22.39 49.06 21.3"/><polygon class="cls-2" points="36.59 23.89 37.02 24.98 38.15 24.64 37.56 25.66 38.53 26.32 37.37 26.5 37.45 27.67 36.59 26.87 35.72 27.67 35.81 26.5 34.65 26.32 35.62 25.66 35.03 24.64 36.16 24.98 36.59 23.89"/><path class="cls-1" d="M32,8V32H8c0-.7,0-1.4.09-2.08,0-.45.09-.9.16-1.34a19.29,19.29,0,0,1,.44-2.29,22.78,22.78,0,0,1,1.16-3.53H9.74l.19-.19c.16-.37.33-.75.51-1.11A23.37,23.37,0,0,1,12.5,18l.13-.18c.16-.23.33-.45.51-.67s.43-.54.66-.8v-.11l.18-.09c.35-.42.73-.82,1.12-1.21a.6.6,0,0,0,.08-.08,23.4,23.4,0,0,1,3.82-3,12.42,12.42,0,0,1,1.3-.78,19.2,19.2,0,0,1,2.27-1.13,18,18,0,0,1,1.9-.71A21.45,21.45,0,0,1,27,8.53a23.08,23.08,0,0,1,2.92-.44C30.6,8,31.3,8,32,8Z"/><path class="cls-2" d="M13.8,16.26v.11c-.23.26-.45.52-.66.8s-.35.44-.51.67l1,1,.15.15,2.45,2.45.15.15,1.15,1.15L19,24.21l1.3,1.3L26.79,32H32v-.3l-8.94-8.94-1.3-1.3L20.3,20l-1.14-1.14L19,18.7l-2.44-2.44-.16-.16L15.26,15l-.08-.08L15.1,15c-.39.39-.77.79-1.12,1.21Z"/><path class="cls-2" d="M29.92,8.09,23,15l-1.3,1.3L20.3,17.71l-1.14,1.15L19,19l-2.45,2.45-.15.15-1.15,1.15L13.8,24.21l-1.3,1.3L8.09,29.92c0-.45.09-.9.16-1.34a19.29,19.29,0,0,1,.44-2.29,22.78,22.78,0,0,1,1.16-3.53H9.74l.19-.19L11,21.46,12.5,20l1.15-1.14.15-.16,2.6-2.6L17.54,15,19,13.5l3.57-3.57a18,18,0,0,1,1.9-.71A21.45,21.45,0,0,1,27,8.53,23.08,23.08,0,0,1,29.92,8.09Z"/><path class="cls-3" d="M14,16.17l.09.09.84.84L14,18l-.19-.19-.66-.66c.21-.28.43-.54.66-.8v-.11Z"/><polygon class="cls-3" points="31.12 32 29.27 32 20.3 23.03 20.03 22.76 19 21.73 18.73 21.46 18.54 21.27 19 20.81 19.46 20.35 31.12 32"/><path class="cls-3" d="M15.56,21.27l-.19.19-1.3,1.3L13.8,23,8.25,28.58a19.29,19.29,0,0,1,.44-2.29l3.54-3.53,2.41-2.41Z"/><path class="cls-3" d="M27,8.53l-6.7,6.7-1,1-.27.27-.19.19-.46-.46-.46-.46.84-.84.27-.27,1.3-1.3,4.17-4.17A21.45,21.45,0,0,1,27,8.53Z"/><path class="cls-2" d="M13.8,16.26v.11c-.23.26-.45.52-.66.8s-.35.44-.51.67L12.5,18a23.36,23.36,0,0,0-2.06,3.44c-.18.36-.35.74-.51,1.11l-.19.19H32V15H15.1c-.39.39-.77.79-1.12,1.21Z"/><path class="cls-2" d="M13.8,16.26v.11c-.23.26-.45.52-.66.8s-.35.44-.51.67L12.5,18V32h7.8V11.06a12.42,12.42,0,0,0-1.3.78,23.4,23.4,0,0,0-3.82,3L15.1,15c-.39.39-.77.79-1.12,1.21Z"/><path class="cls-3" d="M13.8,16.26V32H19V11.84a23.4,23.4,0,0,0-3.82,3L15.1,15c-.39.39-.77.79-1.12,1.21Z"/><path class="cls-3" d="M32,16.26v5.2H10.44A23.37,23.37,0,0,1,12.5,18l.13-.18c.16-.23.33-.45.51-.67s.43-.54.66-.8v-.11Z"/></g></svg>