<?xml version="1.0" encoding="UTF-8" standalone="no"?>
<!-- Created with Inkscape (http://www.inkscape.org/) -->

<svg
   xmlns:dc="http://purl.org/dc/elements/1.1/"
   xmlns:cc="http://creativecommons.org/ns#"
   xmlns:rdf="http://www.w3.org/1999/02/22-rdf-syntax-ns#"
   xmlns:svg="http://www.w3.org/2000/svg"
   xmlns="http://www.w3.org/2000/svg"
   xmlns:sodipodi="http://sodipodi.sourceforge.net/DTD/sodipodi-0.dtd"
   xmlns:inkscape="http://www.inkscape.org/namespaces/inkscape"
   width="1920"
   height="1080"
   viewBox="0 0 6651.9936 3741.7464"
   version="1.1"
   id="svg8"
   inkscape:version="0.92.5 (2060ec1f9f, 2020-04-08)"
   sodipodi:docname="рисунок.svg">
  <defs
     id="defs2" />
  <sodipodi:namedview
     id="base"
     pagecolor="#ffffff"
     bordercolor="#666666"
     borderopacity="1.0"
     inkscape:pageopacity="0.0"
     inkscape:pageshadow="2"
     inkscape:zoom="0.35"
     inkscape:cx="-84.285714"
     inkscape:cy="560"
     inkscape:document-units="px"
     inkscape:current-layer="layer1"
     showgrid="false"
     units="px"
     showguides="true"
     scale-x="3.36458"
     inkscape:window-width="1920"
     inkscape:window-height="1009"
     inkscape:window-x="-8"
     inkscape:window-y="-8"
     inkscape:window-maximized="1" />
  <metadata
     id="metadata5">
    <rdf:RDF>
      <cc:Work
         rdf:about="">
        <dc:format>image/svg+xml</dc:format>
        <dc:type
           rdf:resource="http://purl.org/dc/dcmitype/StillImage" />
        <dc:title></dc:title>
      </cc:Work>
    </rdf:RDF>
  </metadata>
  <g
     inkscape:label="Layer 1"
     inkscape:groupmode="layer"
     id="layer1"
     transform="translate(0,-11.24953)">
    <path
       sodipodi:type="spiral"
       style="fill:none;fill-rule:evenodd;stroke:#000000;stroke-width:3.46458006"
       id="path10"
       sodipodi:cx="-2286.6228"
       sodipodi:cy="2743.3184"
       sodipodi:expansion="1"
       sodipodi:revolution="4.1999998"
       sodipodi:radius="912.94635"
       sodipodi:argument="-29.367603"
       sodipodi:t0="0"
       d="m -2286.6228,2743.3184 c -15.0263,29.0379 -46.5561,-5.9289 -48.263,-24.9748 -4.6258,-51.6131 54.6602,-78.9986 98.2125,-71.5513 77.9049,13.3214 114.3094,100.6666 94.8396,171.4503 -28.5727,103.8778 -147.2012,150.4011 -244.6881,118.1279 -129.9346,-43.0151 -186.8096,-193.9107 -141.4162,-317.9259 57.123,-156.0604 240.7005,-223.3787 391.1637,-164.7044 182.231,71.0623 260.0402,287.5347 187.9927,464.4014 -84.9055,208.4312 -334.3968,296.7597 -537.6391,211.281 -234.6514,-98.6885 -333.5179,-381.2774 -234.5694,-610.8769 112.4316,-260.8856 428.171,-370.3031 684.1147,-257.8577 287.1303,126.1468 407.1079,475.0741 281.146,757.3525 -139.8417,313.3826 -521.9844,443.9275 -830.5903,304.4342 -339.6409,-153.5213 -480.7584,-568.9001 -327.7225,-903.828 167.1895,-365.9038 615.8204,-517.5982 977.0658,-351.0108 395.5686,182.4155 556.0248,659.3458 374.2991,1050.3036 -196.1872,422.0697 -706.0409,592.9968 -1123.5414,397.5874 -346.81,-162.323 -548.9073,-542.4812 -501.1949,-920.6908" />
    <path
       sodipodi:type="spiral"
       style="fill:none;fill-rule:evenodd;stroke:#000000;stroke-width:3.46458006"
       id="path12"
       sodipodi:cx="3662.5559"
       sodipodi:cy="2406.7593"
       sodipodi:expansion="1"
       sodipodi:revolution="4.1999998"
       sodipodi:radius="1440.2668"
       sodipodi:argument="-29.113443"
       sodipodi:t0="0"
       d="m 3662.5559,2406.7593 c -33.8333,37.678 -69.174,-24.8843 -63.7874,-57.2786 13.4097,-80.644 114.7975,-98.9431 178.3445,-70.2962 113.6706,51.2425 134.611,199.0521 76.8051,299.4104 -84.8325,147.2797 -284.423,171.2618 -420.4763,83.314 -181.3377,-117.2206 -208.327,-370.1865 -89.8229,-541.5423 149.1253,-215.6337 456.1363,-245.6055 662.6082,-96.3317 250.0651,180.7905 283.0075,542.1909 102.8406,783.6741 -212.3205,284.5796 -628.3108,320.487 -904.74,109.3495 -321.8738,-245.8482 -360.1304,-711.7587 -115.8584,-1025.806 277.517,-356.7887 797.6431,-397.9729 1146.8719,-122.3672 391.7295,309.1464 435.8413,883.5509 128.8761,1267.9378 -340.7473,426.6896 -969.4762,473.7292 -1389.0037,135.385 -461.6643,-372.3269 -511.632,-1055.4151 -141.8939,-1510.0697 403.8902,-496.6504 1141.3647,-549.5464 1631.1356,-148.4028 531.6455,435.4407 587.4701,1227.3228 154.9116,1752.2016 -466.9809,566.6479 -1313.2878,625.4015 -1873.2675,161.4205 -465.1648,-385.4205 -622.9579,-1046.0565 -400.0839,-1604.6274" />
  </g>
</svg>
